<svg xmlns="http://www.w3.org/2000/svg" width="48" height="48" viewBox="0 0 48 48"><g stroke-linecap="round" stroke-linejoin="round" stroke-width="3" color="#000" font-family="sans-serif" transform="translate(-677 -1210.362)"><path fill="#242730" style="line-height:normal;text-indent:0;text-align:start;text-decoration-line:none;text-decoration-style:solid;text-decoration-color:#000;text-transform:none;block-progression:tb;isolation:auto;mix-blend-mode:normal" d="M703 1212.362c-.554 0-1 .446-1 1v1c0 .554.446 1 1 1h10.004l.016 6.485c0 .825.67 1.493 1.496 1.496l6.484.017v28.502c0 .857-.643 1.5-1.5 1.5h-23c-.857 0-1.5-.643-1.5-1.5v-1.5c0-.554-.446-1-1-1h-1c-.554 0-1 .446-1 1v1.5c0 2.467 2.033 4.5 4.5 4.5h23c2.467 0 4.5-2.033 4.5-4.5v-30.487a1.5 1.5 0 0 0-.44-1.06l-7.513-7.514a1.5 1.5 0 0 0-1.06-.44zm-11 21c0 .554.446 1 1 1h1c.554 0 1-.446 1-1v-10c0-.554-.446-1-1-1h-1c-.554 0-1 .446-1 1z" overflow="visible"/><path fill="#11c111" style="line-height:normal;text-indent:0;text-align:start;text-decoration-line:none;text-decoration-style:solid;text-decoration-color:#000;text-transform:none;block-progression:tb;isolation:auto;mix-blend-mode:normal" d="M696.5 208c-2.467 0-4.5 2.033-4.5 4.5v2.5c0 .554.446 1 1 1h1c.554 0 1-.446 1-1v-2.5c0-.857.643-1.5 1.5-1.5h2.5c.554 0 1-.446 1-1v-1c0-.554-.446-1-1-1h-2.5zM681 232c-1.108 0-2 .892-2 2v7c0 1.108.892 2 2 2h25c1.108 0 2-.892 2-2v-7c0-1.108-.892-2-2-2h-25zm6.932 2.588c.448 0 .88.104 1.338.305.114-.21.229-.297.439-.297.296 0 .42.124.42.525l.01 1.213c0 .401-.097.545-.488.545-.287 0-.391-.144-.477-.44-.153-.544-.44-.83-1.127-.83-.945 0-1.48.65-1.48 1.891 0 1.232.535 1.89 1.49 1.89.878 0 1.404-.65 1.824-.65.239 0 .43.23.43.535 0 .497-1.06 1.147-2.35 1.147-1.642 0-2.73-1.203-2.73-2.922 0-1.633 1.106-2.912 2.7-2.912zm3.853.152h1.93c1.537 0 2.31.602 2.31 1.729 0 1.193-.773 1.824-2.31 1.824h-.793v.953h.469c.382 0 .572.124.572.506s-.19.516-.572.516h-1.606c-.382 0-.572-.134-.572-.516 0-.325.18-.506.496-.506h.076v-3.475h-.066c-.325 0-.506-.18-.506-.515 0-.373.19-.516.572-.516zm5.744 0h1.93c1.537 0 2.31.602 2.31 1.729 0 1.193-.773 1.824-2.31 1.824h-.793v.953h.469c.382 0 .572.124.572.506s-.19.516-.572.516h-1.606c-.382 0-.572-.134-.572-.516 0-.325.181-.506.496-.506h.076v-3.475h-.066c-.325 0-.506-.18-.506-.515 0-.373.19-.516.572-.516zm-4.607 1.069v1.433h.66c.735 0 1.107-.258 1.107-.726 0-.468-.372-.707-1.107-.707h-.66zm5.744 0v1.433h.66c.735 0 1.108-.258 1.108-.726 0-.468-.373-.707-1.108-.707h-.66z" overflow="visible" transform="translate(0 1004.362)"/></g></svg>